<?xml version="1.0" encoding="UTF-8"?>
<svg id="OBJECT" xmlns="http://www.w3.org/2000/svg" version="1.1" viewBox="0 0 500 500">
  <!-- Generator: Adobe Illustrator 30.3.0, SVG Export Plug-In . SVG Version: 2.1.3 Build 182)  -->
  <defs>
    <style>
      .st0, .st1 {
        fill: #c05722;
      }

      .st2, .st3 {
        fill: #e0922d;
      }

      .st4, .st1, .st5, .st3 {
        fill-rule: evenodd;
      }

      .st4, .st6 {
        fill: #f6e139;
      }

      .st7, .st5 {
        fill: #fff;
      }
    </style>
  </defs>
  <g>
    <g>
      <path class="st4" d="M250.33,345.12l11.31,14.56s16.92,2.61,26.7,19.19c0,0,14.14,4.35,17.95,22.29v14.68s-8.7,15.77-56.28,15.77-56.28-15.77-56.28-15.77v-14.68c3.81-17.94,17.95-22.29,17.95-22.29,9.79-16.58,26.7-19.19,26.7-19.19l11.96-14.56Z"/>
      <path class="st1" d="M288.14,378.87c27.71,15.06-54.7,35.73-77.22,1.8,11,16.23,72.55,20.65,77.22-1.8Z"/>
      <polygon class="st4" points="232.21 296.61 250 296.61 267.79 296.61 262.03 359.68 250 359.68 237.97 359.68 232.21 296.61"/>
      <path class="st3" d="M232.21,296.61h35.58l-2.81,30.76c-11.13-5.37-21.87-4.32-30.12-1.7l-2.65-29.06Z"/>
      <ellipse class="st0" cx="250" cy="299.7" rx="30.8" ry="16.33"/>
      <path class="st3" d="M193.72,413.44c23.04,18.96,87.2,17.47,112.56-.99v3.4s-8.7,15.77-56.28,15.77-56.28-15.77-56.28-15.77v-2.41Z"/>
    </g>
    <g>
      <path class="st4" d="M158.16,124.76h183.68v91.84c0,50.51-41.33,91.84-91.84,91.84h0c-50.51,0-91.84-41.33-91.84-91.84v-91.84Z"/>
      <ellipse class="st6" cx="250" cy="124.76" rx="91.84" ry="31.57"/>
      <ellipse class="st2" cx="250" cy="124.76" rx="81.2" ry="27.92"/>
      <path class="st1" d="M319.69,139.09c-14.19,8.14-40.09,13.58-69.69,13.58s-55.5-5.45-69.69-13.58c14.5-7.99,40.29-13.3,69.69-13.3s55.19,5.31,69.69,13.3Z"/>
    </g>
    <g>
      <path class="st3" d="M388.92,184.22c-1.28,20.94-18.31,46.45-49.71,54.16-1.57,6.41-3.83,12.57-6.68,18.38,43.46-1.38,59.75-42.76,56.39-72.54Z"/>
      <path class="st1" d="M344.78,236.78c-1.8.59-3.66,1.13-5.56,1.6-1.57,6.41-3.83,12.57-6.68,18.38,6.79-.22,12.92-1.41,18.42-3.38,1.59-2.85,3.26-4.79,3.26-4.79-9.39-.37-11.12-5.62-9.44-11.81Z"/>
      <path class="st4" d="M388.92,184.22c1.47,27.65-18.02,65.44-56.39,72.54-4.92,10.04-11.62,19.06-19.69,26.66,103.42-6.06,130.74-148.93,68.23-160.59-14.58-2.72-30.34,3.25-39.23,15.84v25.18c5.58-7.27,16.1-10.76,25.82-9.25,15.24,2.37,22.17,14.86,21.27,29.62Z"/>
      <path class="st3" d="M354.2,248.6c-6.38,3.82-13.6,6.67-21.66,8.16-4.92,10.04-11.62,19.06-19.69,26.66,15.63-.92,29.52-4.98,41.62-11.22-14.02-7.68-.25-23.61-.25-23.61h-.02Z"/>
      <path class="st3" d="M369.4,122.46c-10.77,1.28-21.02,6.95-27.56,16.22v25.18c3.94-5.13,10.35-8.38,17.2-9.32-6.88-15.32,1.22-25.7,10.36-32.08Z"/>
    </g>
    <g>
      <path class="st3" d="M111.08,184.22c1.28,20.94,18.31,46.45,49.71,54.16,1.57,6.41,3.83,12.57,6.68,18.38-43.17-2.78-60.38-42.62-56.39-72.54Z"/>
      <path class="st4" d="M111.08,184.22c-1.47,27.65,18.02,65.44,56.39,72.54,4.92,10.04,11.62,19.06,19.69,26.66-103.42-6.06-130.74-148.93-68.23-160.59,14.58-2.72,30.34,3.25,39.23,15.84v25.18c-5.58-7.27-16.1-10.76-25.82-9.25-15.24,2.37-22.17,14.86-21.27,29.62Z"/>
      <path class="st3" d="M130.6,122.46c10.77,1.28,21.02,6.95,27.56,16.22v25.18c-3.94-5.13-10.35-8.38-17.2-9.32,6.88-15.32-1.22-25.7-10.36-32.08Z"/>
      <path class="st1" d="M155.22,236.78c1.8.59,3.66,1.13,5.56,1.6,1.57,6.41,3.83,12.57,6.68,18.38-6.79-.22-12.92-1.41-18.42-3.38-1.59-2.85-3.26-4.79-3.26-4.79,9.39-.37,11.12-5.62,9.44-11.81Z"/>
      <path class="st3" d="M145.8,248.6c6.38,3.82,13.6,6.67,21.66,8.16,4.92,10.04,11.62,19.06,19.69,26.66-15.63-.92-29.52-4.98-41.62-11.22,14.02-7.68.25-23.61.25-23.61h.02Z"/>
    </g>
    <g>
      <path class="st3" d="M250,181.39c49.6,0,49.6,75.41,0,75.41s-49.6-75.41,0-75.41Z"/>
      <path class="st1" d="M262.67,244.24l-12.67-7.02-12.67,7.02c-1.06.59-2.3.51-3.28-.2-.98-.72-1.44-1.86-1.2-3.06l2.76-14.21-10.59-9.88c-.89-.83-1.2-2.02-.82-3.18.38-1.16,1.33-1.94,2.54-2.09l14.37-1.77,6.12-13.12c.51-1.1,1.55-1.77,2.77-1.77s2.26.66,2.77,1.77l6.12,13.12,14.37,1.77c1.21.15,2.16.93,2.54,2.09.38,1.16.07,2.35-.82,3.18l-10.59,9.88,2.76,14.21c.23,1.2-.22,2.34-1.2,3.06-.98.71-2.22.79-3.28.2Z"/>
    </g>
  </g>
  <g>
    <g>
      <path class="st4" d="M316.68,297.87h0c0,5.85,4.78,10.63,10.63,10.63h0c-5.85,0-10.63,4.79-10.63,10.63h0c0-5.85-4.79-10.63-10.63-10.63h0c5.85,0,10.63-4.79,10.63-10.63Z"/>
      <path class="st4" d="M146.38,98.06h0c1.54,7.64,9.04,12.63,16.68,11.09h0c-7.64,1.54-12.63,9.04-11.09,16.68h0c-1.54-7.64-9.04-12.63-16.68-11.09h0c7.64-1.54,12.63-9.04,11.09-16.68Z"/>
      <path class="st4" d="M164.26,73.85h0c0,4.67,3.82,8.49,8.49,8.49h0c-4.67,0-8.49,3.82-8.49,8.49h0c0-4.67-3.82-8.49-8.49-8.49h0c4.67,0,8.49-3.82,8.49-8.49Z"/>
      <path class="st4" d="M153.98,278.56h0c0,6.72,5.5,12.22,12.22,12.22h0c-6.72,0-12.22,5.5-12.22,12.22h0c0-6.72-5.5-12.22-12.22-12.22h0c6.72,0,12.22-5.5,12.22-12.22Z"/>
      <path class="st4" d="M369.92,86h0c0,6.72,5.5,12.22,12.22,12.22h0c-6.72,0-12.22,5.5-12.22,12.22h0c0-6.72-5.5-12.22-12.22-12.22h0c6.72,0,12.22-5.5,12.22-12.22Z"/>
      <path class="st4" d="M344.59,290.3h0c0,2.3,1.88,4.18,4.18,4.18h0c-2.3,0-4.18,1.88-4.18,4.18h0c0-2.3-1.88-4.18-4.18-4.18h0c2.3,0,4.18-1.88,4.18-4.18Z"/>
      <path class="st4" d="M327.2,74.6h0c0,2.3,1.88,4.18,4.18,4.18h0c-2.3,0-4.18,1.88-4.18,4.18h0c0-2.3-1.88-4.18-4.18-4.18h0c2.3,0,4.18-1.88,4.18-4.18Z"/>
      <path class="st4" d="M190.97,296.17h0c0,2.3,1.88,4.18,4.18,4.18h0c-2.3,0-4.18,1.88-4.18,4.18h0c0-2.3-1.88-4.18-4.18-4.18h0c2.3,0,4.18-1.88,4.18-4.18Z"/>
    </g>
    <g>
      <circle class="st7" cx="405.04" cy="274.11" r="5.32" transform="translate(68.76 629.24) rotate(-80.65)"/>
      <path class="st5" d="M453.32,215.57c1.47,0,2.66,1.19,2.66,2.66s-1.19,2.66-2.66,2.66-2.66-1.19-2.66-2.66,1.19-2.66,2.66-2.66Z"/>
      <path class="st5" d="M457.51,52.09c1.68,0,3.04,1.36,3.04,3.04s-1.36,3.04-3.04,3.04-3.04-1.36-3.04-3.04,1.36-3.04,3.04-3.04Z"/>
      <path class="st5" d="M58.7,42.21c1.05,0,1.9.85,1.9,1.9s-.85,1.9-1.9,1.9-1.9-.85-1.9-1.9.85-1.9,1.9-1.9Z"/>
      <path class="st5" d="M41.98,198.84c1.47,0,2.66,1.19,2.66,2.66s-1.19,2.66-2.66,2.66-2.66-1.19-2.66-2.66,1.19-2.66,2.66-2.66Z"/>
      <path class="st5" d="M99.38,68.82c1.68,0,3.04,1.36,3.04,3.04s-1.36,3.04-3.04,3.04-3.04-1.36-3.04-3.04,1.36-3.04,3.04-3.04Z"/>
      <path class="st5" d="M56.8,329.62c1.26,0,2.28,1.02,2.28,2.28s-1.02,2.28-2.28,2.28-2.28-1.02-2.28-2.28,1.02-2.28,2.28-2.28Z"/>
      <path class="st5" d="M411.12,347.11c.84,0,1.52.68,1.52,1.52s-.68,1.52-1.52,1.52-1.52-.68-1.52-1.52.68-1.52,1.52-1.52Z"/>
      <path class="st5" d="M338.06,337.1c.83,0,1.5.67,1.5,1.5s-.67,1.5-1.5,1.5-1.5-.67-1.5-1.5.67-1.5,1.5-1.5Z"/>
    </g>
  </g>
</svg>